<?xml version="1.0" standalone="no"?>
<!DOCTYPE svg PUBLIC "-//W3C//DTD SVG 20010904//EN"
 "http://www.w3.org/TR/2001/REC-SVG-20010904/DTD/svg10.dtd">
<svg version="1.0" xmlns="http://www.w3.org/2000/svg"
 width="275.000000pt" height="275.000000pt" viewBox="0 0 275.000000 275.000000"
 preserveAspectRatio="xMidYMid meet">
<metadata>
Created by potrace 1.11, written by Peter Selinger 2001-2013
</metadata>
<g transform="translate(0.000000,275.000000) scale(0.100000,-0.100000)"
fill="#000000" stroke="none">
<path d="M1736 2723 c-6 -14 -5 -15 5 -6 7 7 10 15 7 18 -3 3 -9 -2 -12 -12z"/>
<path d="M1976 2723 c-6 -14 -5 -15 5 -6 7 7 10 15 7 18 -3 3 -9 -2 -12 -12z"/>
<path d="M763 2712 c-10 -14 -14 -15 -21 -3 -7 10 -11 10 -17 1 -6 -9 -10 -9
-16 1 -6 10 -9 11 -9 2 0 -7 -5 -13 -11 -13 -6 0 -29 -14 -50 -31 -21 -17 -44
-27 -50 -23 -7 4 -7 -1 1 -16 11 -20 10 -22 -4 -17 -9 4 -16 2 -16 -3 0 -6 5
-10 11 -10 5 0 7 -5 4 -10 -4 -6 -12 -7 -18 -3 -9 5 -9 3 -1 -8 15 -20 12 -36
-11 -54 l-20 -15 20 6 c18 5 18 4 4 -8 -9 -7 -14 -19 -11 -27 3 -8 0 -11 -6
-7 -6 3 -14 1 -18 -5 -4 -7 -3 -9 4 -5 6 3 13 2 17 -4 3 -5 1 -10 -6 -10 -7 0
-9 -3 -6 -7 4 -3 1 -13 -5 -21 -15 -17 -20 -44 -7 -36 5 3 7 9 4 14 -3 5 -1
11 4 14 5 4 8 -2 6 -11 -2 -10 -4 -21 -4 -25 -1 -5 -9 -8 -18 -9 -13 0 -11 -3
7 -10 24 -10 24 -11 6 -25 -11 -8 -15 -14 -10 -14 6 0 10 -11 10 -24 0 -14 -4
-22 -8 -20 -4 3 -8 0 -8 -5 0 -6 6 -11 13 -11 8 0 7 -4 -3 -10 -11 -7 -11 -10
-2 -10 8 0 10 -5 5 -12 -12 -21 -14 -48 -2 -48 5 0 7 5 3 12 -4 7 -3 8 5 4 9
-6 9 -11 0 -22 -6 -8 -8 -14 -4 -14 4 0 1 -8 -6 -17 -8 -9 -9 -14 -2 -10 12 8
12 -10 0 -30 -4 -7 0 -16 10 -22 11 -6 13 -11 5 -11 -7 0 -10 -5 -7 -10 4 -6
1 -17 -5 -25 -8 -9 -8 -15 -2 -15 6 0 9 -8 7 -17 -2 -10 -4 -18 -5 -18 -1 0
-3 -10 -6 -22 -2 -13 1 -23 7 -23 5 0 7 5 3 12 -5 7 -3 8 6 3 10 -6 9 -11 -5
-22 -11 -7 -14 -13 -9 -13 16 0 11 -60 -6 -71 -13 -9 -13 -10 2 -6 9 3 19 -1
22 -9 3 -9 1 -12 -4 -9 -6 3 -10 1 -10 -5 0 -6 -5 -8 -12 -4 -7 4 -8 3 -4 -5
4 -6 13 -8 19 -5 7 4 9 4 5 -1 -4 -4 -3 -16 3 -26 7 -15 6 -17 -6 -13 -8 3
-12 11 -8 17 4 6 1 7 -6 3 -9 -6 -8 -13 5 -27 13 -15 14 -19 3 -19 -9 0 -10
-3 -3 -8 17 -11 25 -52 8 -45 -7 2 -10 12 -7 21 4 14 3 15 -6 2 -7 -11 -6 -19
6 -32 13 -15 13 -18 2 -18 -12 0 -12 -2 0 -9 11 -7 12 -13 4 -23 -14 -16 -14
-29 -1 -45 7 -9 7 -18 -2 -28 -10 -12 -10 -15 1 -15 11 0 11 -2 -1 -10 -11 -7
-11 -10 -2 -10 8 0 10 -5 5 -12 -12 -21 -14 -48 -2 -48 5 0 7 5 3 12 -4 7 -3
8 5 4 9 -6 9 -11 0 -22 -6 -8 -8 -14 -4 -14 4 0 1 -8 -6 -17 -8 -9 -9 -14 -3
-10 6 3 11 0 11 -8 0 -8 -4 -12 -9 -9 -4 3 -8 0 -8 -5 0 -6 5 -11 10 -11 6 0
8 -13 5 -30 -4 -20 -1 -30 7 -30 9 0 9 -3 -1 -9 -18 -12 -23 -39 -9 -48 7 -4
8 -1 3 7 -5 9 -4 11 4 6 16 -11 2 -28 -18 -22 -14 6 -15 5 0 -6 18 -14 22 -51
5 -41 -6 4 -5 -1 3 -10 11 -14 11 -17 0 -17 -9 0 -10 -3 -4 -8 14 -10 18 -35
4 -26 -7 4 -10 2 -7 -7 3 -8 12 -13 19 -11 11 3 11 1 2 -9 -6 -6 -9 -18 -6
-27 5 -10 2 -13 -6 -8 -8 5 -7 -3 4 -24 9 -18 12 -29 7 -26 -6 3 -13 -1 -16
-10 -4 -10 -2 -13 6 -8 7 5 9 0 6 -14 -4 -15 -2 -19 9 -15 13 5 13 2 4 -15
-13 -24 -15 -43 -2 -24 6 11 14 6 32 -19 12 -18 18 -29 11 -25 -24 15 -11 -10
19 -37 17 -14 28 -31 24 -37 -3 -5 2 -10 12 -10 15 0 16 -2 3 -10 -13 -8 -13
-10 2 -10 12 0 15 -5 11 -17 -4 -11 -3 -14 5 -9 15 9 16 -6 2 -20 -7 -7 -6
-11 4 -11 8 0 13 4 10 9 -3 4 0 8 7 8 7 0 9 -10 7 -24 -3 -17 0 -23 11 -22 10
1 15 -6 13 -16 -2 -10 3 -18 11 -18 8 0 18 -7 21 -16 5 -14 4 -15 -9 -4 -13
11 -14 10 -9 -4 3 -9 13 -16 20 -16 8 0 17 -14 21 -31 4 -23 8 -27 15 -17 7 9
8 7 5 -10 -3 -12 -2 -20 3 -17 7 4 30 -17 44 -42 5 -9 2 -11 -10 -6 -14 5 -14
3 2 -15 20 -24 29 -29 18 -9 -5 8 -2 8 9 -2 18 -15 23 -26 7 -16 -6 3 -10 1
-10 -4 0 -6 7 -11 15 -11 8 0 16 -4 16 -10 1 -5 3 -14 4 -20 1 -5 3 -15 4 -21
0 -5 5 -8 10 -5 11 7 23 -22 14 -36 -3 -7 -1 -8 5 -4 7 4 12 1 12 -9 0 -9 5
-13 10 -10 6 3 10 -3 10 -15 0 -12 3 -19 8 -17 10 7 32 -19 24 -29 -4 -4 1 -4
11 -1 9 4 17 2 17 -4 0 -6 5 -7 10 -4 6 3 10 2 10 -4 0 -7 8 -7 26 -1 14 6 23
6 20 1 -3 -5 3 -11 14 -14 11 -3 20 -1 20 4 0 5 5 9 11 9 5 0 8 -4 4 -9 -3 -5
0 -13 6 -17 7 -4 9 -3 6 3 -4 6 2 13 13 16 14 4 20 0 20 -11 0 -15 2 -15 10
-2 8 12 10 11 10 -7 0 -13 5 -23 10 -23 6 0 10 -5 10 -11 0 -5 -5 -7 -11 -3
-7 4 -7 -1 1 -16 7 -12 8 -20 3 -17 -5 4 -10 0 -10 -8 0 -8 4 -12 9 -9 4 3 8
2 9 -3 3 -33 11 -50 30 -65 11 -10 18 -18 13 -18 -4 0 -18 9 -30 21 -16 15
-24 17 -29 8 -5 -7 -4 -10 2 -6 13 8 46 -27 36 -37 -4 -4 4 -3 19 3 22 8 26 8
21 -4 -6 -17 8 -20 23 -5 7 7 19 4 37 -10 19 -15 25 -17 21 -6 -4 11 0 13 17
9 16 -5 20 -3 14 6 -5 10 -3 11 11 4 11 -6 71 -9 134 -8 118 2 153 -2 145 -14
-2 -4 2 -8 9 -8 8 0 11 8 8 21 -4 20 -4 21 10 2 19 -24 49 -31 41 -9 -5 13 -2
13 14 4 17 -8 22 -7 27 6 6 14 8 14 26 -2 11 -10 20 -13 20 -7 0 5 9 8 22 4
16 -4 19 -2 13 9 -7 11 -6 12 6 3 16 -13 147 -12 169 0 12 7 13 6 3 -5 -7 -7
-13 -17 -13 -23 0 -5 9 1 20 14 11 13 20 18 20 11 0 -7 5 -9 10 -6 6 4 7 11 4
17 -4 7 -2 8 5 4 6 -4 14 0 17 8 3 9 12 16 19 16 8 0 17 5 21 12 4 7 3 8 -5 4
-8 -6 -8 -1 0 18 7 14 16 23 21 19 6 -3 5 4 -1 15 -8 15 -6 24 9 42 22 26 25
40 9 40 -5 0 -7 5 -4 10 5 8 12 7 23 -2 13 -10 13 -8 -1 9 -14 16 -15 23 -6
29 8 5 10 3 4 -6 -6 -9 -4 -11 4 -5 9 5 10 10 2 18 -16 16 -13 31 4 17 12 -10
13 -7 6 17 -8 29 8 69 23 58 3 -3 1 1 -4 7 -9 10 -13 10 -20 -2 -6 -9 -10 -10
-10 -3 0 7 8 17 18 22 10 6 12 11 4 11 -8 0 -10 5 -6 12 10 16 12 78 2 72 -4
-3 -8 2 -8 11 0 9 5 13 10 10 6 -3 10 -1 10 4 0 6 -4 11 -8 11 -5 0 -9 7 -9
15 0 16 8 19 23 8 5 -5 2 -1 -8 8 -9 9 -14 19 -11 23 12 11 13 46 2 46 -5 0
-7 -5 -3 -12 5 -7 3 -8 -6 -3 -10 6 -9 11 5 22 13 9 15 13 5 13 -10 0 -11 3
-3 11 8 8 8 20 2 36 -6 16 -5 22 1 18 17 -10 11 7 -7 20 -13 9 -13 14 -3 20 9
6 11 4 5 -6 -7 -12 -5 -12 6 -1 9 8 10 15 4 20 -12 8 -14 47 -3 57 9 9 -2 36
-12 30 -5 -3 -6 5 -3 16 6 21 7 21 20 4 7 -11 13 -14 13 -8 0 7 -5 15 -10 18
-6 4 -7 11 -4 17 5 8 1 9 -12 5 -18 -7 -18 -7 0 8 11 8 15 15 9 15 -11 0 -11
7 1 68 3 12 1 20 -3 17 -5 -3 -12 2 -15 11 -3 8 -2 12 4 9 6 -3 10 -3 11 2 0
4 2 16 4 26 2 12 -1 17 -10 14 -9 -4 -11 1 -7 15 4 15 7 17 14 6 5 -8 6 -2 2
16 -5 22 -4 27 6 21 9 -6 11 -4 6 4 -5 7 -15 10 -25 7 -12 -5 -11 -2 3 9 11 8
15 15 9 15 -11 0 -11 7 1 68 3 12 1 20 -3 17 -5 -3 -12 2 -15 11 -3 8 -2 12 4
9 6 -3 10 -3 11 2 0 4 2 16 4 26 2 12 -1 17 -10 14 -9 -4 -11 1 -7 15 4 15 7
17 14 6 7 -9 8 -8 4 5 -3 10 -6 25 -6 33 0 9 -5 12 -12 8 -7 -4 -8 -3 -4 5 4
6 12 9 17 6 5 -4 9 -1 9 4 0 6 -4 11 -8 11 -4 0 -8 24 -7 54 0 30 3 52 6 50 3
-2 6 3 6 11 0 8 -4 12 -9 9 -4 -3 -8 2 -8 11 0 9 4 13 10 10 6 -3 10 -1 10 4
0 6 -4 11 -8 11 -5 0 -9 7 -9 15 0 10 6 14 16 10 13 -4 13 -2 -1 8 -10 8 -15
17 -11 21 11 10 12 37 2 30 -5 -3 -9 2 -9 11 0 9 5 13 10 10 6 -3 10 -1 10 4
0 6 -4 11 -10 11 -14 0 -12 27 3 33 10 4 10 6 0 6 -7 1 -13 6 -13 12 0 5 4 8
8 5 4 -2 8 4 8 15 0 10 -3 19 -6 19 -3 0 -6 11 -6 24 -1 16 3 23 11 20 7 -3
16 -1 19 4 3 5 -2 9 -12 8 -12 -1 -18 8 -20 26 -3 23 0 27 15 22 14 -5 15 -4
4 4 -16 11 -23 52 -9 52 4 0 8 -5 8 -12 0 -6 3 -8 6 -5 11 10 -17 38 -30 30
-6 -4 -5 1 2 10 8 9 11 21 7 27 -3 5 -1 10 4 10 6 0 11 -5 11 -12 0 -6 3 -8 7
-4 5 4 1 13 -7 19 -22 17 -22 119 0 112 10 -3 9 0 -3 9 -14 10 -15 15 -5 19
10 4 10 6 1 6 -7 1 -13 5 -13 10 0 5 10 7 23 5 19 -4 19 -3 3 4 -21 9 -31 42
-14 42 6 0 4 7 -3 17 -10 11 -10 14 -1 9 6 -4 12 -2 12 3 0 6 -6 11 -12 11 -9
0 -8 4 2 10 8 5 10 10 3 10 -6 0 -9 9 -5 22 4 16 2 19 -8 13 -9 -6 -11 -4 -4
6 11 18 15 71 5 65 -4 -3 -8 1 -8 8 0 9 7 12 16 8 9 -3 13 -2 9 3 -4 4 -3 14
4 22 8 11 7 12 -5 7 -12 -4 -15 -1 -12 15 2 12 7 26 10 31 3 6 2 10 -3 10 -6
0 -9 22 -8 49 0 27 4 47 7 45 3 -2 6 4 6 12 0 8 -6 13 -12 10 -8 -3 -10 4 -7
21 3 16 1 24 -5 20 -5 -3 -10 1 -10 9 0 9 6 13 16 9 13 -5 13 -4 4 6 -10 10
-16 9 -29 -2 -12 -9 -15 -10 -10 -1 5 8 1 12 -11 13 -10 0 -13 3 -5 6 24 9 12
19 -19 15 -20 -3 -34 0 -40 9 -6 10 -9 11 -9 2 0 -20 -20 -15 -21 5 0 15 -1
15 -8 -2 -7 -18 -8 -18 -14 -3 -3 9 -12 17 -19 16 -10 0 -10 -2 0 -6 6 -2 9
-9 6 -14 -4 -6 -11 -6 -19 1 -9 8 -15 8 -20 0 -9 -15 -21 -13 -41 8 -17 16
-18 16 -11 0 8 -23 -2 -23 -18 -1 -9 13 -14 13 -20 3 -6 -9 -4 -11 5 -5 9 5
11 4 6 -4 -6 -9 -11 -9 -24 1 -12 10 -14 10 -8 1 9 -16 1 -16 -26 -2 -15 8
-19 8 -14 0 4 -6 2 -11 -3 -11 -6 0 -11 8 -12 18 0 15 -1 15 -8 -2 -7 -18 -8
-18 -14 -3 -3 9 -12 17 -19 17 -10 0 -10 -2 1 -9 8 -5 9 -11 3 -15 -6 -3 -14
-2 -17 4 -5 8 -11 8 -20 0 -15 -13 -48 -2 -38 13 3 6 1 7 -6 3 -6 -4 -9 -12
-6 -17 4 -5 1 -9 -4 -9 -6 0 -11 5 -11 11 0 8 -6 7 -17 -2 -9 -8 -14 -9 -10
-3 3 6 0 11 -8 11 -8 0 -12 -4 -9 -9 8 -13 -10 -9 -33 7 -20 14 -23 14 -32 -2
-7 -12 -10 -14 -11 -4 0 10 -3 11 -14 2 -10 -9 -16 -9 -21 -1 -5 8 -11 8 -21
-1 -12 -10 -17 -8 -28 6 -10 14 -15 15 -21 5 -6 -9 -4 -11 6 -5 12 7 12 6 0
-6 -11 -11 -14 -11 -18 -1 -4 10 -8 10 -21 0 -9 -7 -13 -8 -9 -2 3 6 0 11 -8
11 -8 0 -12 -4 -9 -9 8 -13 -10 -9 -33 7 -20 14 -23 14 -32 -2 -8 -14 -10 -15
-11 -3 0 13 -1 13 -10 0 -9 -13 -10 -13 -10 0 0 13 -1 13 -10 0 -8 -12 -10
-12 -10 -1 0 11 -3 11 -15 1 -13 -11 -18 -10 -29 5 -10 14 -15 15 -21 5 -6 -9
-4 -11 6 -5 12 7 12 6 0 -6 -11 -11 -14 -11 -18 -1 -4 10 -8 10 -21 0 -9 -7
-13 -8 -9 -2 3 6 0 11 -8 11 -8 0 -12 -4 -9 -9 3 -4 0 -8 -5 -8 -6 0 -11 5
-11 11 0 8 -6 7 -17 -2 -11 -10 -14 -10 -9 -1 4 6 3 12 -3 12 -5 0 -12 -6 -14
-12 -4 -10 -6 -10 -6 0 -1 6 -6 12 -12 12 -5 0 -7 -4 -4 -10 3 -5 1 -10 -4
-10 -6 0 -11 6 -11 13 0 8 -4 7 -10 -3 -7 -11 -10 -11 -10 -2 0 8 -5 10 -12 5
-17 -10 -68 -13 -68 -4 0 4 -7 8 -15 8 -8 0 -12 -4 -9 -9 3 -4 0 -8 -5 -8 -6
0 -11 6 -11 13 0 8 -4 7 -10 -3 -8 -12 -10 -12 -10 -1 0 11 -3 11 -17 0 -9 -8
-14 -9 -10 -3 4 7 0 14 -7 17 -10 4 -13 0 -11 -14 4 -17 2 -19 -10 -9 -8 7
-12 17 -9 24 3 6 -2 2 -10 -8 -9 -11 -19 -17 -22 -13 -4 4 -14 1 -22 -6 -9 -6
-13 -7 -10 -2 4 6 3 16 0 23 -6 8 -11 6 -19 -6z m602 -2 c3 -5 1 -10 -4 -10
-6 0 -11 5 -11 10 0 6 2 10 4 10 3 0 8 -4 11 -10z m240 0 c3 -5 1 -10 -4 -10
-6 0 -11 5 -11 10 0 6 2 10 4 10 3 0 8 -4 11 -10z"/>
<path d="M796 2722 c-3 -5 1 -9 9 -9 8 0 12 4 9 9 -3 4 -7 8 -9 8 -2 0 -6 -4
-9 -8z"/>
<path d="M986 2722 c-3 -5 1 -9 9 -9 8 0 12 4 9 9 -3 4 -7 8 -9 8 -2 0 -6 -4
-9 -8z"/>
<path d="M656 2704 c-4 -9 -9 -14 -13 -10 -3 3 -13 -3 -21 -15 -12 -17 -16
-18 -30 -7 -15 12 -16 11 -3 -4 12 -16 15 -16 47 8 19 15 34 30 34 35 0 14 -7
10 -14 -7z"/>
<path d="M555 2561 c-3 -5 -2 -12 3 -15 5 -3 9 1 9 9 0 17 -3 19 -12 6z"/>
<path d="M2227 2517 c-3 -8 1 -14 8 -14 7 0 11 6 8 14 -3 7 -6 13 -8 13 -2 0
-5 -6 -8 -13z"/>
<path d="M2226 2333 c-6 -14 -5 -15 5 -6 7 7 10 15 7 18 -3 3 -9 -2 -12 -12z"/>
<path d="M590 850 c0 -5 5 -10 11 -10 5 0 7 5 4 10 -3 6 -8 10 -11 10 -2 0 -4
-4 -4 -10z"/>
<path d="M790 546 c0 -2 7 -7 16 -10 8 -3 12 -2 9 4 -6 10 -25 14 -25 6z"/>
<path d="M863 435 c0 -8 4 -12 9 -9 5 3 6 10 3 15 -9 13 -12 11 -12 -6z"/>
<path d="M2165 181 c-3 -5 -2 -12 3 -15 5 -3 9 1 9 9 0 17 -3 19 -12 6z"/>
<path d="M1300 46 c0 -2 8 -10 18 -17 15 -13 16 -12 3 4 -13 16 -21 21 -21 13z"/>
<path d="M1386 32 c-3 -5 1 -9 9 -9 8 0 15 4 15 9 0 10 -17 10 -24 0z"/>
<path d="M1895 29 c-3 -4 2 -6 10 -5 21 3 28 13 10 13 -9 0 -18 -4 -20 -8z"/>
</g>
</svg>
